<svg width="65" height="65" viewBox="0 0 65 65" fill="none" xmlns="http://www.w3.org/2000/svg">
<rect x="0.199951" y="0.259766" width="64" height="64" rx="32" fill="#030303"/>
<g clip-path="url(#clip0_1_1087)">
<g clip-path="url(#clip1_1_1087)">
<path d="M20.2 18.7598H18.7C17.8715 18.7598 17.2 19.4313 17.2 20.2598V41.2598L19.45 45.7598L21.7 41.2598V20.2598C21.7 19.4313 21.0284 18.7598 20.2 18.7598Z" stroke="#FCFCFC" stroke-width="2.25" stroke-linejoin="round"/>
<path d="M45.7 32.2617V26.2609C45.7 22.7248 45.7 20.9568 44.6017 19.8583C43.5032 18.7598 41.7355 18.7598 38.2 18.7598H33.7C30.1645 18.7598 28.3967 18.7598 27.2983 19.8583C26.2 20.9568 26.2 22.7248 26.2 26.2609V38.2626C26.2 41.7986 26.2 43.5666 27.2983 44.6652C28.229 45.596 29.6401 45.7381 32.2 45.7598" stroke="#FCFCFC" stroke-width="2.25" stroke-linecap="round" stroke-linejoin="round"/>
<path d="M32.2 24.7598H39.7" stroke="#FCFCFC" stroke-width="2.25" stroke-linecap="round" stroke-linejoin="round"/>
<path d="M32.2 30.7598H39.7" stroke="#FCFCFC" stroke-width="2.25" stroke-linecap="round" stroke-linejoin="round"/>
<path d="M35.2 42.7598C35.2 42.7598 37.45 43.5098 38.95 45.7598C38.95 45.7598 41.2 39.7598 47.2 36.7598" stroke="#FCFCFC" stroke-width="2.25" stroke-linecap="round" stroke-linejoin="round"/>
<path d="M17.2 24.7598H21.7" stroke="#FCFCFC" stroke-width="2.25" stroke-linecap="round" stroke-linejoin="round"/>
</g>
</g>
<defs>
<clipPath id="clip0_1_1087">
<rect width="36" height="36" fill="white" transform="translate(14.2 14.2598)"/>
</clipPath>
<clipPath id="clip1_1_1087">
<rect width="36" height="36" fill="white" transform="translate(14.2 14.2598)"/>
</clipPath>
</defs>
</svg>
