<svg width="65" height="65" viewBox="0 0 65 65" fill="none" xmlns="http://www.w3.org/2000/svg">
<rect x="0.199951" y="0.92041" width="64" height="64" rx="32" fill="#030303"/>
<g clip-path="url(#clip0_1_1078)">
<g clip-path="url(#clip1_1_1078)">
<path d="M29.2 23.9204C23.5431 23.9204 20.7147 23.9204 18.9573 25.6778C17.2 27.4351 17.2 30.2636 17.2 35.9204C17.2 41.5772 17.2 44.4057 18.9573 46.163C20.7147 47.9204 23.5431 47.9204 29.2 47.9204H35.2C40.8568 47.9204 43.6853 47.9204 45.4426 46.163C47.2 44.4057 47.2 41.5772 47.2 35.9204C47.2 34.1657 47.1999 32.6832 47.1474 31.4204" stroke="#FCFCFC" stroke-width="2.25" stroke-linecap="round" stroke-linejoin="round"/>
<path d="M41.2 17.9204L41.6422 19.1153C42.2219 20.6822 42.5119 21.4656 43.0834 22.0371C43.6549 22.6086 44.4382 22.8985 46.0051 23.4783L47.2 23.9204L46.0051 24.3626C44.4382 24.9423 43.6549 25.2322 43.0834 25.8037C42.5119 26.3752 42.2219 27.1586 41.6422 28.7255L41.2 29.9204L40.7578 28.7255C40.1781 27.1586 39.8881 26.3752 39.3166 25.8037C38.7451 25.2322 37.9618 24.9423 36.3949 24.3626L35.2 23.9204L36.3949 23.4783C37.9618 22.8985 38.7451 22.6086 39.3166 22.0371C39.8881 21.4656 40.1781 20.6822 40.7578 19.1153L41.2 17.9204Z" stroke="#FCFCFC" stroke-width="2.25" stroke-linejoin="round"/>
</g>
</g>
<defs>
<clipPath id="clip0_1_1078">
<rect width="36" height="36" fill="white" transform="translate(14.2 14.9204)"/>
</clipPath>
<clipPath id="clip1_1_1078">
<rect width="36" height="36" fill="white" transform="translate(14.2 14.9204)"/>
</clipPath>
</defs>
</svg>
