<svg width="65" height="65" viewBox="0 0 65 65" fill="none" xmlns="http://www.w3.org/2000/svg">
<rect x="0.199951" y="0.109863" width="64" height="64" rx="32" fill="#030303"/>
<g clip-path="url(#clip0_1_1069)">
<g clip-path="url(#clip1_1_1069)">
<path d="M38.2 27.6099C38.2 21.8109 33.499 17.1099 27.7 17.1099C21.901 17.1099 17.2 21.8109 17.2 27.6099C17.2 33.4089 21.901 38.1099 27.7 38.1099" stroke="#FCFCFC" stroke-width="2.25"/>
<path d="M38.2 27.6099H36.7C32.4574 27.6099 30.3361 27.6099 29.018 28.9279C27.7 30.246 27.7 32.3673 27.7 36.6099V38.1099C27.7 42.3525 27.7 44.4738 29.018 45.7918C30.3361 47.1099 32.4574 47.1099 36.7 47.1099H38.2C42.4426 47.1099 44.5639 47.1099 45.8819 45.7918C47.2 44.4738 47.2 42.3525 47.2 38.1099V36.6099C47.2 32.3673 47.2 30.246 45.8819 28.9279C44.5639 27.6099 42.4426 27.6099 38.2 27.6099Z" stroke="#FCFCFC" stroke-width="2.25"/>
</g>
</g>
<defs>
<clipPath id="clip0_1_1069">
<rect width="36" height="36" fill="white" transform="translate(14.2 14.1099)"/>
</clipPath>
<clipPath id="clip1_1_1069">
<rect width="36" height="36" fill="white" transform="translate(14.2 14.1099)"/>
</clipPath>
</defs>
</svg>
