<svg width="65" height="65" viewBox="0 0 65 65" fill="none" xmlns="http://www.w3.org/2000/svg">
<rect x="0.199951" y="0.25" width="64" height="64" rx="32" fill="#030303"/>
<g clip-path="url(#clip0_1_1060)">
<g clip-path="url(#clip1_1_1060)">
<path d="M23.3223 36.748C22.7547 35.4721 22.4382 34.0527 22.4382 32.5569C22.4382 27.0015 26.8035 22.498 32.1883 22.498C37.5731 22.498 41.9383 27.0015 41.9383 32.5569C41.9383 34.0527 41.6218 35.4721 41.0542 36.748" stroke="#FCFCFC" stroke-width="1.5" stroke-linecap="round"/>
<path d="M32.1882 17.248V18.748" stroke="#FCFCFC" stroke-width="1.5" stroke-linecap="round" stroke-linejoin="round"/>
<path d="M47.1882 32.248H45.6882" stroke="#FCFCFC" stroke-width="1.5" stroke-linecap="round" stroke-linejoin="round"/>
<path d="M18.6882 32.248H17.1882" stroke="#FCFCFC" stroke-width="1.5" stroke-linecap="round" stroke-linejoin="round"/>
<path d="M42.7939 21.6406L41.7332 22.7013" stroke="#FCFCFC" stroke-width="1.5" stroke-linecap="round" stroke-linejoin="round"/>
<path d="M22.6434 22.7032L21.5828 21.6426" stroke="#FCFCFC" stroke-width="1.5" stroke-linecap="round" stroke-linejoin="round"/>
<path d="M35.9654 43.2091C37.481 42.7189 38.0888 41.3317 38.2598 39.9364C38.3108 39.5196 37.9679 39.1738 37.5479 39.1738L26.9052 39.1741C26.4708 39.1741 26.1219 39.5428 26.1738 39.9741C26.3412 41.3667 26.7639 42.384 28.3701 43.2091M35.9654 43.2091C35.9654 43.2091 28.6345 43.2091 28.3701 43.2091M35.9654 43.2091C35.7831 46.1266 34.9406 47.2821 32.2001 47.2497C29.2688 47.3038 28.5944 45.8757 28.3701 43.2091" stroke="#FCFCFC" stroke-width="1.5" stroke-linecap="round" stroke-linejoin="round"/>
</g>
</g>
<defs>
<clipPath id="clip0_1_1060">
<rect width="36" height="36" fill="white" transform="translate(14.2 14.25)"/>
</clipPath>
<clipPath id="clip1_1_1060">
<rect width="36" height="36" fill="white" transform="translate(14.2 14.25)"/>
</clipPath>
</defs>
</svg>
