<svg width="383" height="123" viewBox="0 0 383 123" fill="none" xmlns="http://www.w3.org/2000/svg">
<mask id="path-1-inside-1_103_332" fill="white">
<path d="M0.309998 61.4813C0.309998 27.5261 27.8361 0 61.7912 0H320.829C354.784 0 382.31 27.5261 382.31 61.4813C382.31 95.4364 354.784 122.963 320.829 122.963H61.7912C27.8361 122.963 0.309998 95.4364 0.309998 61.4813Z"/>
</mask>
<path d="M61.7912 0V1H320.829V0V-1H61.7912V0ZM320.829 122.963V121.963H61.7912V122.963V123.963H320.829V122.963ZM61.7912 122.963V121.963C28.3884 121.963 1.31 94.8841 1.31 61.4813H0.309998H-0.690002C-0.690002 95.9887 27.2838 123.963 61.7912 123.963V122.963ZM382.31 61.4813H381.31C381.31 94.8841 354.232 121.963 320.829 121.963V122.963V123.963C355.336 123.963 383.31 95.9887 383.31 61.4813H382.31ZM320.829 0V1C354.232 1 381.31 28.0784 381.31 61.4813H382.31H383.31C383.31 26.9738 355.336 -1 320.829 -1V0ZM61.7912 0V-1C27.2838 -1 -0.690002 26.9738 -0.690002 61.4813H0.309998H1.31C1.31 28.0784 28.3884 1 61.7912 1V0Z" fill="#030303" mask="url(#path-1-inside-1_103_332)"/>
<path d="M77.7005 33H67.3199C64.809 33 62.7479 35.0611 62.7479 37.572V50.9882H47.7203C45.2844 50.9882 43.2982 52.9744 43.2982 55.4477V70.4753H29.7696C27.2962 70.4753 25.31 72.4615 25.31 74.9349V85.428C25.31 87.9014 27.2962 89.8876 29.7696 89.9625H62.7853H67.3573H77.738C80.2489 89.9625 82.31 87.9014 82.31 85.3905V37.572C82.2725 35.0611 80.2114 33 77.7005 33Z" fill="url(#paint0_linear_103_332)"/>
<path d="M77.7005 33H67.3199C64.809 33 62.7479 35.0611 62.7479 37.572V50.9882H47.7203C45.2844 50.9882 43.2982 52.9744 43.2982 55.4477V70.4753H29.7696C27.2962 70.4753 25.31 72.4615 25.31 74.9349V85.428C25.31 87.9014 27.2962 89.8876 29.7696 89.9625H62.7853H67.3573H77.738C80.2489 89.9625 82.31 87.9014 82.31 85.3905V37.572C82.2725 35.0611 80.2114 33 77.7005 33Z" fill="url(#paint1_linear_103_332)"/>
<mask id="mask0_103_332" style="mask-type:luminance" maskUnits="userSpaceOnUse" x="25" y="33" width="58" height="57">
<path d="M77.7005 33H67.3948C64.884 33 62.8228 35.0611 62.8228 37.572V50.9882H47.8327C45.3593 50.9882 43.3356 53.0118 43.3356 55.4852V70.4753H29.807C27.3337 70.4753 25.31 72.499 25.31 74.9724V85.4655C25.31 87.9389 27.3337 89.9625 29.807 89.9625H77.7005C80.2114 89.9625 82.2725 87.9014 82.2725 85.3905V37.572C82.2725 35.0611 80.2114 33 77.7005 33Z" fill="white"/>
</mask>
<g mask="url(#mask0_103_332)">
<path d="M77.7006 32.9998H67.3949C64.884 32.9998 62.8229 35.0609 62.8229 37.5717V50.9879V89.9623H67.3949H77.7006C80.2114 89.9623 82.2726 87.9011 82.2726 85.3903V37.5717C82.2726 35.0609 80.2114 32.9998 77.7006 32.9998Z" fill="#F57C00"/>
<g filter="url(#filter0_d_103_332)">
<path d="M43.2982 55.4853V70.4755H29.807C27.3337 70.4755 25.31 72.4991 25.31 74.9725V85.4656C25.31 87.939 27.3337 89.9626 29.807 89.9626H62.7853V50.9883H47.7952C45.3218 50.9883 43.2982 53.012 43.2982 55.4853Z" fill="black"/>
</g>
<path d="M43.2982 55.4853V70.4755H29.807C27.3337 70.4755 25.31 72.4991 25.31 74.9725V85.4656C25.31 87.939 27.3337 89.9626 29.807 89.9626H62.7853V50.9883H47.7952C45.3218 50.9883 43.2982 53.012 43.2982 55.4853Z" fill="#FFC107"/>
</g>
<mask id="mask1_103_332" style="mask-type:luminance" maskUnits="userSpaceOnUse" x="25" y="33" width="58" height="57">
<path d="M77.7005 33H67.3948C64.884 33 62.8228 35.0611 62.8228 37.572V50.9882H47.8327C45.3593 50.9882 43.3356 53.0118 43.3356 55.4852V70.4753H29.807C27.3337 70.4753 25.31 72.499 25.31 74.9724V85.4655C25.31 87.9389 27.3337 89.9625 29.807 89.9625H77.7005C80.2114 89.9625 82.2725 87.9014 82.2725 85.3905V37.572C82.2725 35.0611 80.2114 33 77.7005 33Z" fill="white"/>
</mask>
<g mask="url(#mask1_103_332)">
<path d="M62.7858 50.9883V89.9626H67.3578H77.6635C80.1743 89.9626 82.2355 87.9015 82.2355 85.3906V70.4755L62.7858 50.9883Z" fill="url(#paint2_linear_103_332)"/>
</g>
<mask id="mask2_103_332" style="mask-type:luminance" maskUnits="userSpaceOnUse" x="25" y="33" width="58" height="57">
<path d="M77.7005 33H67.3948C64.884 33 62.8228 35.0611 62.8228 37.572V50.9882H47.8327C45.3593 50.9882 43.3356 53.0118 43.3356 55.4852V70.4753H29.807C27.3337 70.4753 25.31 72.499 25.31 74.9724V85.4655C25.31 87.9389 27.3337 89.9625 29.807 89.9625H77.7005C80.2114 89.9625 82.2725 87.9014 82.2725 85.3905V37.572C82.2725 35.0611 80.2114 33 77.7005 33Z" fill="white"/>
</mask>
<g mask="url(#mask2_103_332)">
<path opacity="0.2" d="M47.7954 51.363H62.7856V50.9883H47.7954C45.322 50.9883 43.2984 53.0119 43.2984 55.4853V55.8601C43.2984 53.3867 45.322 51.363 47.7954 51.363Z" fill="white"/>
</g>
<mask id="mask3_103_332" style="mask-type:luminance" maskUnits="userSpaceOnUse" x="25" y="33" width="58" height="57">
<path d="M77.7005 33H67.3948C64.884 33 62.8228 35.0611 62.8228 37.572V50.9882H47.8327C45.3593 50.9882 43.3356 53.0118 43.3356 55.4852V70.4753H29.807C27.3337 70.4753 25.31 72.499 25.31 74.9724V85.4655C25.31 87.9389 27.3337 89.9625 29.807 89.9625H77.7005C80.2114 89.9625 82.2725 87.9014 82.2725 85.3905V37.572C82.2725 35.0611 80.2114 33 77.7005 33Z" fill="white"/>
</mask>
<g mask="url(#mask3_103_332)">
<path opacity="0.2" d="M29.807 70.8503H43.2982V70.4756H29.807C27.3337 70.4756 25.31 72.4993 25.31 74.9726V75.3474C25.31 72.874 27.3337 70.8503 29.807 70.8503Z" fill="white"/>
</g>
<mask id="mask4_103_332" style="mask-type:luminance" maskUnits="userSpaceOnUse" x="25" y="33" width="58" height="57">
<path d="M77.7005 33H67.3948C64.884 33 62.8228 35.0611 62.8228 37.572V50.9882H47.8327C45.3593 50.9882 43.3356 53.0118 43.3356 55.4852V70.4753H29.807C27.3337 70.4753 25.31 72.499 25.31 74.9724V85.4655C25.31 87.9389 27.3337 89.9625 29.807 89.9625H77.7005C80.2114 89.9625 82.2725 87.9014 82.2725 85.3905V37.572C82.2725 35.0611 80.2114 33 77.7005 33Z" fill="white"/>
</mask>
<g mask="url(#mask4_103_332)">
<path opacity="0.2" d="M77.7006 32.9998H67.3949C64.884 32.9998 62.8229 35.0609 62.8229 37.5717V37.9465C62.8229 35.4357 64.884 33.3745 67.3949 33.3745H77.7006C80.2114 33.3745 82.2726 35.4357 82.2726 37.9465V37.5717C82.2726 35.0609 80.2114 32.9998 77.7006 32.9998Z" fill="white"/>
</g>
<mask id="mask5_103_332" style="mask-type:luminance" maskUnits="userSpaceOnUse" x="25" y="33" width="58" height="57">
<path d="M77.7005 33H67.3948C64.884 33 62.8228 35.0611 62.8228 37.572V50.9882H47.8327C45.3593 50.9882 43.3356 53.0118 43.3356 55.4852V70.4753H29.807C27.3337 70.4753 25.31 72.499 25.31 74.9724V85.4655C25.31 87.9389 27.3337 89.9625 29.807 89.9625H77.7005C80.2114 89.9625 82.2725 87.9014 82.2725 85.3905V37.572C82.2725 35.0611 80.2114 33 77.7005 33Z" fill="white"/>
</mask>
<g mask="url(#mask5_103_332)">
<path opacity="0.2" d="M77.7005 89.5876H67.3948H62.7853H29.807C27.3337 89.5876 25.31 87.5639 25.31 85.0906V85.4653C25.31 87.9387 27.3337 89.9624 29.807 89.9624H62.7853H67.3573H77.6631C80.1739 89.9624 82.2351 87.9012 82.2351 85.3904L82.2356 85.0156C82.2725 87.5265 80.2114 89.5876 77.7005 89.5876Z" fill="#BF360C"/>
</g>
<path d="M77.7005 33H67.3948C64.884 33 62.8228 35.0611 62.8228 37.572V50.9882H47.8327C45.3593 50.9882 43.3356 53.0118 43.3356 55.4852V70.4753H29.807C27.3337 70.4753 25.31 72.499 25.31 74.9724V85.4655C25.31 87.9389 27.3337 89.9625 29.807 89.9625H77.7005C80.2114 89.9625 82.2725 87.9014 82.2725 85.3905V37.572C82.2725 35.0611 80.2114 33 77.7005 33Z" fill="url(#paint3_linear_103_332)"/>
<path d="M115.196 57.6403C115.007 57.0267 114.746 56.4774 114.412 55.9926C114.087 55.5001 113.693 55.0797 113.23 54.7312C112.776 54.3827 112.253 54.1214 111.662 53.9471C111.071 53.7653 110.427 53.6744 109.73 53.6744C108.48 53.6744 107.367 53.9888 106.39 54.6176C105.412 55.2464 104.643 56.1706 104.083 57.3903C103.53 58.6024 103.253 60.0797 103.253 61.8221C103.253 63.5797 103.53 65.0683 104.083 66.288C104.636 67.5077 105.405 68.4357 106.39 69.0721C107.374 69.7009 108.518 70.0153 109.821 70.0153C111.003 70.0153 112.026 69.788 112.89 69.3335C113.761 68.8789 114.431 68.235 114.901 67.4017C115.371 66.5607 115.605 65.5759 115.605 64.4471L116.56 64.5948H110.242V61.2994H119.685V64.0948C119.685 66.0873 119.261 67.8107 118.412 69.2653C117.564 70.7198 116.397 71.841 114.912 72.6289C113.427 73.4092 111.723 73.7994 109.799 73.7994C107.655 73.7994 105.772 73.3183 104.151 72.3562C102.537 71.3865 101.276 70.0115 100.367 68.2312C99.4653 66.4433 99.0145 64.3221 99.0145 61.8676C99.0145 59.9888 99.2797 58.3107 99.81 56.8335C100.348 55.3562 101.098 54.1024 102.06 53.0721C103.022 52.0342 104.151 51.2464 105.446 50.7085C106.742 50.163 108.151 49.8903 109.674 49.8903C110.962 49.8903 112.162 50.0797 113.276 50.4585C114.39 50.8297 115.378 51.36 116.242 52.0494C117.113 52.7388 117.829 53.557 118.39 54.5039C118.95 55.4509 119.318 56.4964 119.492 57.6403H115.196ZM131.194 73.8221C129.489 73.8221 128.012 73.4471 126.762 72.6971C125.512 71.9471 124.542 70.8979 123.853 69.5494C123.171 68.2009 122.83 66.6251 122.83 64.8221C122.83 63.0191 123.171 61.4395 123.853 60.0835C124.542 58.7274 125.512 57.6744 126.762 56.9244C128.012 56.1744 129.489 55.7994 131.194 55.7994C132.898 55.7994 134.375 56.1744 135.625 56.9244C136.875 57.6744 137.841 58.7274 138.523 60.0835C139.212 61.4395 139.557 63.0191 139.557 64.8221C139.557 66.6251 139.212 68.2009 138.523 69.5494C137.841 70.8979 136.875 71.9471 135.625 72.6971C134.375 73.4471 132.898 73.8221 131.194 73.8221ZM131.216 70.5267C132.14 70.5267 132.913 70.2729 133.534 69.7653C134.156 69.2501 134.618 68.5607 134.921 67.6971C135.231 66.8335 135.387 65.8714 135.387 64.8107C135.387 63.7426 135.231 62.7767 134.921 61.913C134.618 61.0418 134.156 60.3486 133.534 59.8335C132.913 59.3183 132.14 59.0607 131.216 59.0607C130.269 59.0607 129.481 59.3183 128.853 59.8335C128.231 60.3486 127.765 61.0418 127.455 61.913C127.152 62.7767 127 63.7426 127 64.8107C127 65.8714 127.152 66.8335 127.455 67.6971C127.765 68.5607 128.231 69.2501 128.853 69.7653C129.481 70.2729 130.269 70.5267 131.216 70.5267ZM150.662 73.8221C148.958 73.8221 147.48 73.4471 146.23 72.6971C144.98 71.9471 144.011 70.8979 143.321 69.5494C142.64 68.2009 142.299 66.6251 142.299 64.8221C142.299 63.0191 142.64 61.4395 143.321 60.0835C144.011 58.7274 144.98 57.6744 146.23 56.9244C147.48 56.1744 148.958 55.7994 150.662 55.7994C152.367 55.7994 153.844 56.1744 155.094 56.9244C156.344 57.6744 157.31 58.7274 157.992 60.0835C158.681 61.4395 159.026 63.0191 159.026 64.8221C159.026 66.6251 158.681 68.2009 157.992 69.5494C157.31 70.8979 156.344 71.9471 155.094 72.6971C153.844 73.4471 152.367 73.8221 150.662 73.8221ZM150.685 70.5267C151.609 70.5267 152.382 70.2729 153.003 69.7653C153.624 69.2501 154.087 68.5607 154.39 67.6971C154.7 66.8335 154.855 65.8714 154.855 64.8107C154.855 63.7426 154.7 62.7767 154.39 61.913C154.087 61.0418 153.624 60.3486 153.003 59.8335C152.382 59.3183 151.609 59.0607 150.685 59.0607C149.738 59.0607 148.95 59.3183 148.321 59.8335C147.7 60.3486 147.234 61.0418 146.924 61.913C146.621 62.7767 146.469 63.7426 146.469 64.8107C146.469 65.8714 146.621 66.8335 146.924 67.6971C147.234 68.5607 147.7 69.2501 148.321 69.7653C148.95 70.2729 149.738 70.5267 150.685 70.5267ZM170.108 80.3903C168.631 80.3903 167.362 80.1895 166.301 79.788C165.241 79.3941 164.389 78.8638 163.745 78.1971C163.101 77.5304 162.654 76.7918 162.404 75.9812L166.108 75.0835C166.275 75.4244 166.517 75.7615 166.836 76.0948C167.154 76.4357 167.582 76.716 168.12 76.9357C168.665 77.163 169.351 77.2767 170.176 77.2767C171.343 77.2767 172.309 76.9926 173.074 76.4244C173.839 75.8638 174.222 74.9395 174.222 73.6517V70.3448H174.017C173.805 70.7691 173.495 71.2047 173.086 71.6517C172.684 72.0986 172.15 72.4736 171.483 72.7767C170.824 73.0797 169.995 73.2312 168.995 73.2312C167.654 73.2312 166.438 72.9168 165.347 72.288C164.264 71.6517 163.4 70.7047 162.756 69.4471C162.12 68.182 161.801 66.5986 161.801 64.6971C161.801 62.7804 162.12 61.163 162.756 59.8448C163.4 58.5191 164.267 57.5153 165.358 56.8335C166.449 56.1441 167.665 55.7994 169.006 55.7994C170.029 55.7994 170.87 55.9736 171.529 56.3221C172.195 56.663 172.726 57.0759 173.12 57.5607C173.514 58.038 173.813 58.4888 174.017 58.913H174.245V56.0267H178.301V73.7653C178.301 75.2577 177.945 76.4926 177.233 77.4698C176.521 78.4471 175.548 79.1782 174.313 79.663C173.078 80.1479 171.676 80.3903 170.108 80.3903ZM170.142 70.0039C171.014 70.0039 171.756 69.7918 172.37 69.3676C172.983 68.9433 173.449 68.3335 173.767 67.538C174.086 66.7426 174.245 65.788 174.245 64.6744C174.245 63.5759 174.086 62.6138 173.767 61.788C173.457 60.9623 172.995 60.3221 172.381 59.8676C171.775 59.4054 171.029 59.1744 170.142 59.1744C169.226 59.1744 168.461 59.413 167.847 59.8903C167.233 60.3676 166.771 61.0229 166.461 61.8562C166.15 62.682 165.995 63.6214 165.995 64.6744C165.995 65.7426 166.15 66.6782 166.461 67.4812C166.779 68.2767 167.245 68.8979 167.858 69.3448C168.48 69.7842 169.241 70.0039 170.142 70.0039ZM186.631 50.2085V73.4812H182.517V50.2085H186.631ZM198.588 73.8221C196.838 73.8221 195.327 73.4585 194.054 72.7312C192.789 71.9964 191.816 70.9585 191.134 69.6176C190.452 68.2691 190.111 66.682 190.111 64.8562C190.111 63.0607 190.452 61.485 191.134 60.1289C191.823 58.7653 192.785 57.7047 194.02 56.9471C195.255 56.182 196.706 55.7994 198.372 55.7994C199.448 55.7994 200.463 55.9736 201.418 56.3221C202.38 56.663 203.229 57.1933 203.963 57.913C204.706 58.6327 205.289 59.5494 205.713 60.663C206.138 61.7691 206.35 63.0873 206.35 64.6176V65.8789H192.043V63.1062H202.407C202.399 62.3183 202.229 61.6176 201.895 61.0039C201.562 60.3827 201.096 59.8941 200.497 59.538C199.907 59.182 199.217 59.0039 198.429 59.0039C197.588 59.0039 196.85 59.2085 196.213 59.6176C195.577 60.0191 195.081 60.5494 194.725 61.2085C194.376 61.86 194.198 62.5759 194.191 63.3562V65.7767C194.191 66.7918 194.376 67.663 194.747 68.3903C195.119 69.11 195.638 69.663 196.304 70.0494C196.971 70.4282 197.751 70.6176 198.645 70.6176C199.244 70.6176 199.785 70.5342 200.27 70.3676C200.755 70.1933 201.176 69.9395 201.532 69.6062C201.888 69.2729 202.157 68.86 202.338 68.3676L206.179 68.7994C205.937 69.8145 205.475 70.7009 204.793 71.4585C204.119 72.2085 203.255 72.7918 202.202 73.2085C201.149 73.6176 199.944 73.8221 198.588 73.8221ZM220.708 73.4812H216.98L225.355 50.2085H229.412L237.787 73.4812H234.06L227.48 54.4357H227.299L220.708 73.4812ZM221.333 64.3676H233.424V67.3221H221.333V64.3676ZM244.273 63.1176V73.4812H240.875V56.0267H244.137V58.8676H244.353C244.754 57.9433 245.383 57.2009 246.239 56.6403C247.103 56.0797 248.19 55.7994 249.5 55.7994C250.69 55.7994 251.731 56.0494 252.625 56.5494C253.519 57.0418 254.212 57.7767 254.705 58.7539C255.197 59.7312 255.444 60.9395 255.444 62.3789V73.4812H252.046V62.788C252.046 61.5229 251.716 60.5342 251.057 59.8221C250.398 59.1024 249.493 58.7426 248.341 58.7426C247.553 58.7426 246.853 58.913 246.239 59.2539C245.633 59.5948 245.152 60.0948 244.796 60.7539C244.447 61.4054 244.273 62.1933 244.273 63.1176ZM265.08 73.8676C263.974 73.8676 262.974 73.663 262.08 73.2539C261.186 72.8373 260.478 72.235 259.955 71.4471C259.44 70.6592 259.182 69.6933 259.182 68.5494C259.182 67.5645 259.372 66.7539 259.75 66.1176C260.129 65.4812 260.64 64.9774 261.284 64.6062C261.928 64.235 262.648 63.9547 263.444 63.7653C264.239 63.5759 265.05 63.432 265.875 63.3335C266.921 63.2123 267.769 63.1138 268.421 63.038C269.072 62.9547 269.546 62.8221 269.841 62.6403C270.137 62.4585 270.284 62.163 270.284 61.7539V61.6744C270.284 60.682 270.004 59.913 269.444 59.3676C268.89 58.8221 268.065 58.5494 266.966 58.5494C265.822 58.5494 264.921 58.8032 264.262 59.3107C263.61 59.8107 263.159 60.3676 262.909 60.9812L259.716 60.2539C260.095 59.1933 260.648 58.3373 261.375 57.6857C262.11 57.0267 262.955 56.5494 263.909 56.2539C264.864 55.9509 265.868 55.7994 266.921 55.7994C267.618 55.7994 268.356 55.8827 269.137 56.0494C269.925 56.2085 270.659 56.5039 271.341 56.9357C272.031 57.3676 272.595 57.985 273.034 58.788C273.474 59.5835 273.694 60.6176 273.694 61.8903V73.4812H270.375V71.0948H270.239C270.019 71.5342 269.69 71.966 269.25 72.3903C268.811 72.8145 268.247 73.1668 267.557 73.4471C266.868 73.7274 266.042 73.8676 265.08 73.8676ZM265.819 71.1403C266.758 71.1403 267.561 70.9547 268.228 70.5835C268.902 70.2123 269.413 69.7274 269.762 69.1289C270.118 68.5229 270.296 67.8751 270.296 67.1857V64.9357C270.175 65.057 269.94 65.1706 269.591 65.2767C269.25 65.3751 268.86 65.4623 268.421 65.538C267.981 65.6062 267.553 65.6706 267.137 65.7312C266.72 65.7842 266.372 65.8297 266.091 65.8676C265.432 65.9509 264.83 66.091 264.284 66.288C263.747 66.485 263.315 66.7691 262.989 67.1403C262.671 67.5039 262.512 67.9888 262.512 68.5948C262.512 69.4357 262.822 70.0721 263.444 70.5039C264.065 70.9282 264.856 71.1403 265.819 71.1403ZM281.617 50.2085V73.4812H278.219V50.2085H281.617ZM288.336 80.0267C287.828 80.0267 287.366 79.985 286.949 79.9017C286.533 79.8259 286.222 79.7426 286.017 79.6517L286.836 76.8676C287.457 77.0342 288.01 77.1062 288.495 77.0835C288.98 77.0607 289.408 76.8789 289.779 76.538C290.158 76.1971 290.491 75.6403 290.779 74.8676L291.199 73.7085L284.813 56.0267H288.449L292.87 69.5721H293.051L297.472 56.0267H301.12L293.926 75.8107C293.593 76.7198 293.169 77.4888 292.654 78.1176C292.139 78.7539 291.525 79.2312 290.813 79.5494C290.101 79.8676 289.275 80.0267 288.336 80.0267ZM312.461 56.0267V58.7539H302.926V56.0267H312.461ZM305.483 51.8448H308.881V68.3562C308.881 69.0153 308.98 69.5115 309.176 69.8448C309.373 70.1706 309.627 70.3941 309.938 70.5153C310.256 70.6289 310.601 70.6857 310.972 70.6857C311.245 70.6857 311.483 70.6668 311.688 70.6289C311.892 70.591 312.051 70.5607 312.165 70.538L312.779 73.3448C312.582 73.4206 312.301 73.4964 311.938 73.5721C311.574 73.6554 311.12 73.7009 310.574 73.7085C309.68 73.7236 308.847 73.5645 308.074 73.2312C307.301 72.8979 306.676 72.3827 306.199 71.6857C305.722 70.9888 305.483 70.1138 305.483 69.0607V51.8448ZM316.219 73.4812V56.0267H319.617V73.4812H316.219ZM317.935 53.3335C317.344 53.3335 316.837 53.1365 316.412 52.7426C315.996 52.341 315.787 51.8638 315.787 51.3107C315.787 50.7501 315.996 50.2729 316.412 49.8789C316.837 49.4774 317.344 49.2767 317.935 49.2767C318.526 49.2767 319.03 49.4774 319.446 49.8789C319.871 50.2729 320.083 50.7501 320.083 51.3107C320.083 51.8638 319.871 52.341 319.446 52.7426C319.03 53.1365 318.526 53.3335 317.935 53.3335ZM331.54 73.8335C329.851 73.8335 328.396 73.4509 327.176 72.6857C325.964 71.913 325.033 70.8486 324.381 69.4926C323.73 68.1365 323.404 66.5835 323.404 64.8335C323.404 63.0607 323.737 61.4964 324.404 60.1403C325.07 58.7767 326.01 57.7123 327.222 56.9471C328.434 56.182 329.862 55.7994 331.506 55.7994C332.832 55.7994 334.014 56.0456 335.051 56.538C336.089 57.0229 336.926 57.7047 337.563 58.5835C338.207 59.4623 338.589 60.4888 338.711 61.663H335.404C335.222 60.8448 334.805 60.1403 334.154 59.5494C333.51 58.9585 332.646 58.663 331.563 58.663C330.616 58.663 329.786 58.913 329.074 59.413C328.37 59.9054 327.82 60.61 327.426 61.5267C327.033 62.4357 326.836 63.5115 326.836 64.7539C326.836 66.0267 327.029 67.1251 327.415 68.0494C327.801 68.9736 328.347 69.6895 329.051 70.1971C329.764 70.7047 330.601 70.9585 331.563 70.9585C332.207 70.9585 332.79 70.841 333.313 70.6062C333.843 70.3638 334.286 70.0191 334.642 69.5721C335.006 69.1251 335.26 68.5873 335.404 67.9585H338.711C338.589 69.0873 338.222 70.0948 337.608 70.9812C336.995 71.8676 336.173 72.5645 335.142 73.0721C334.12 73.5797 332.919 73.8335 331.54 73.8335ZM355.424 60.288L352.344 60.8335C352.215 60.4395 352.011 60.0645 351.73 59.7085C351.458 59.3524 351.087 59.0607 350.617 58.8335C350.147 58.6062 349.56 58.4926 348.855 58.4926C347.893 58.4926 347.09 58.7085 346.446 59.1403C345.802 59.5645 345.48 60.1138 345.48 60.788C345.48 61.3714 345.696 61.841 346.128 62.1971C346.56 62.5532 347.257 62.8448 348.219 63.0721L350.992 63.7085C352.598 64.0797 353.795 64.6517 354.583 65.4244C355.371 66.1971 355.765 67.2009 355.765 68.4357C355.765 69.4812 355.462 70.413 354.855 71.2312C354.257 72.0418 353.42 72.6782 352.344 73.1403C351.276 73.6024 350.037 73.8335 348.628 73.8335C346.674 73.8335 345.079 73.4168 343.844 72.5835C342.609 71.7426 341.852 70.5494 341.571 69.0039L344.855 68.5039C345.06 69.36 345.48 70.0077 346.117 70.4471C346.753 70.8789 347.583 71.0948 348.605 71.0948C349.719 71.0948 350.609 70.8638 351.276 70.4017C351.943 69.932 352.276 69.36 352.276 68.6857C352.276 68.1403 352.071 67.682 351.662 67.3107C351.261 66.9395 350.643 66.6592 349.81 66.4698L346.855 65.8221C345.227 65.4509 344.022 64.86 343.242 64.0494C342.469 63.2388 342.083 62.2123 342.083 60.9698C342.083 59.9395 342.371 59.038 342.946 58.2653C343.522 57.4926 344.318 56.8903 345.333 56.4585C346.348 56.0191 347.511 55.7994 348.821 55.7994C350.708 55.7994 352.193 56.2085 353.276 57.0267C354.359 57.8373 355.075 58.9244 355.424 60.288Z" fill="#5F6368"/>
<defs>
<filter id="filter0_d_103_332" x="10.658" y="38.7783" width="66.7794" height="68.2784" filterUnits="userSpaceOnUse" color-interpolation-filters="sRGB">
<feFlood flood-opacity="0" result="BackgroundImageFix"/>
<feColorMatrix in="SourceAlpha" type="matrix" values="0 0 0 0 0 0 0 0 0 0 0 0 0 0 0 0 0 0 127 0" result="hardAlpha"/>
<feOffset dy="2.442"/>
<feGaussianBlur stdDeviation="7.32601"/>
<feColorMatrix type="matrix" values="0 0 0 0 0 0 0 0 0 0 0 0 0 0 0 0 0 0 0.2 0"/>
<feBlend mode="normal" in2="BackgroundImageFix" result="effect1_dropShadow_103_332"/>
<feBlend mode="normal" in="SourceGraphic" in2="effect1_dropShadow_103_332" result="shape"/>
</filter>
<linearGradient id="paint0_linear_103_332" x1="25.31" y1="2881.13" x2="5721.56" y2="2881.13" gradientUnits="userSpaceOnUse">
<stop stop-color="white" stop-opacity="0.1"/>
<stop offset="1" stop-color="white" stop-opacity="0"/>
</linearGradient>
<linearGradient id="paint1_linear_103_332" x1="25.31" y1="2881.13" x2="5721.56" y2="2881.13" gradientUnits="userSpaceOnUse">
<stop stop-color="white" stop-opacity="0.1"/>
<stop offset="1" stop-color="white" stop-opacity="0"/>
</linearGradient>
<linearGradient id="paint2_linear_103_332" x1="-902.204" y1="1034.72" x2="2364.17" y2="1848.17" gradientUnits="userSpaceOnUse">
<stop stop-color="#BF360C" stop-opacity="0.2"/>
<stop offset="1" stop-color="#BF360C" stop-opacity="0.02"/>
</linearGradient>
<linearGradient id="paint3_linear_103_332" x1="1935.24" y1="1945.55" x2="5620.05" y2="5630.35" gradientUnits="userSpaceOnUse">
<stop stop-color="white" stop-opacity="0.1"/>
<stop offset="1" stop-color="white" stop-opacity="0"/>
</linearGradient>
</defs>
</svg>
